<?xml version="1.0" encoding="UTF-8" standalone="no"?>
<svg width="40px" height="40px" viewBox="0 0 40 40" version="1.1" xmlns="http://www.w3.org/2000/svg" xmlns:xlink="http://www.w3.org/1999/xlink">
    <!-- Generator: Sketch 45 (43475) - http://www.bohemiancoding.com/sketch -->
    <title>0</title>
    <desc>Created with Sketch.</desc>
    <defs>
        <polygon id="path-1" points="0 20 20 20 20 0 9.29409089e-20 0 9.29409089e-20 20"></polygon>
    </defs>
    <g id="Weather-Icons" stroke="none" stroke-width="1" fill="none" fill-rule="evenodd">
        <g id="0">
            <g id="Icon-/-Weather-symbol-/-Weather-icon-/-0">
                <g id="Icon-/-Weather-icon-/-0">
                    <g id="Icon-/-Weather-symbol-/-Element-/-Moon" transform="translate(10.000000, 5.000000)">
                        <g id="Moon">
                            <mask id="mask-2" fill="white">
                                <use xlink:href="#path-1"></use>
                            </mask>
                            <g id="Clip-2"></g>
                            <path d="M13.0538768,0.494606841 C12.0183447,0.0500000007 9.93185033,3.37207462e-06 9.93185033,3.37207462e-06 C5.80000019,3.37207462e-06 4.42158502,1.26965558 4.42158502,1.26965558 L6.43178604,2.6965271 C8.10852514,3.88459522 9.08919463,5.74233265 9.08748018,7.61706676 C9.08748018,8.18475597 9.00004286,8.75669434 8.8123098,9.32183404 C8.4162702,10.5251992 7.63876388,11.4965596 6.62209078,12.1849253 C5.60627491,12.8690417 4.34786336,13.2574159 3.02515966,13.2574159 C2.82971154,13.2574159 2.63426343,13.2506173 2.43710085,13.2319209 L0,13.0211621 C0,13.0211621 2,18 6.76696241,19.4994477 C7.80678068,19.8376817 8.86888689,20 9.91127684,20 C12.0337748,19.9983003 14.078265,19.3320304 15.7704342,18.1363137 C17.4626034,16.9448463 18.7990228,15.2154338 19.4968068,13.113794 C19.8354121,12.0820953 20,11.0274512 20,9.99490268 C20,7.88901368 19.3262183,5.8630091 18.1218122,4.18713618 C16.9191205,2.51126325 15.1042158,1.37492209 13.0538768,0.494606841 Z" id="Fill-1" fill="#636363" mask="url(#mask-2)"></path>
                        </g>
                    </g>
                </g>
            </g>
        </g>
    </g>
</svg>