<?xml version="1.0" encoding="UTF-8" standalone="no"?>
<svg width="40px" height="40px" viewBox="0 0 40 40" version="1.1" xmlns="http://www.w3.org/2000/svg" xmlns:xlink="http://www.w3.org/1999/xlink">
    <!-- Generator: Sketch 45 (43475) - http://www.bohemiancoding.com/sketch -->
    <title>1</title>
    <desc>Created with Sketch.</desc>
    <defs></defs>
    <g id="Weather-Icons" stroke="none" stroke-width="1" fill="none" fill-rule="evenodd">
        <g id="1" fill="#FF9103">
            <g id="Icon-/-Weather-symbol-/-Weather-icon-/-1">
                <g id="Icon-/-Weather-icon-/-1">
                    <g id="Icon-/-Weather-symbol-/-Element-/-Sun" transform="translate(6.000000, 2.000000)">
                        <path d="M13.9558083,5 C9.54144068,5.02565872 5.97447831,8.63379481 6.00013757,13.0457959 C6.02579684,17.432788 9.61354646,21 13.9977076,21 L14.0454534,21 C16.1826426,20.9896066 18.1847147,20.1457919 19.6878928,18.6254314 C21.1917205,17.1057204 22.0137914,15.0926475 21.9998249,12.955828 C21.9754649,8.56883602 18.3877152,5 13.9558083,5" id="Fill-1"></path>
                        <path d="M15,21.711 C14.6947507,21.7464306 13.9973325,21.7689773 13.9973325,21.7689773 C13.702195,21.7689773 13.2903976,21.7531946 13,21.7238838 L13,24.8201934 C13.0053719,25.3435995 13.4858793,25.7678 14,25.7678 C14,25.7678 15.0034543,25.7000008 14.9999784,24.8076316 L15,21.711 Z M15,0.948908971 C14.9943121,0.423884659 14.5141208,0 14,0 C13.4795594,0.00225470563 12.9943694,0.431937179 13.0000573,0.958571995 L13,3.8024 C13.3061973,3.76664681 13.6868508,3.74764286 14,3.74603236 C14.3175731,3.74603236 14.6903268,3.76439211 15,3.79628008 L15,0.948908971 Z" id="Fill-3"></path>
                        <path d="M23.6949729,3.29166554 C23.296407,2.90018032 22.6502888,2.90256951 22.2541363,3.30019835 L20.0834,5.47435779 C20.610569,5.90099818 21.0908478,6.38429641 21.5176858,6.9106 L23.707385,4.7207402 C24.1007793,4.32379398 24.0983658,3.68383339 23.6949729,3.29166554 M6.5997939,18.9739 L4.29149412,21.2791119 C3.89913487,21.6760561 3.90292745,22.3163548 4.30252707,22.7085207 C4.50422316,22.9030678 4.76177357,23 5.02035831,23 C5.28411474,23 5.5475264,22.9006786 5.74715381,22.7003293 L8.0689,20.3766866 C7.52931984,19.9589224 7.03421626,19.4920095 6.5997939,18.9739" id="Fill-6"></path>
                        <path d="M23.75,12.0146385 C23.7687112,12.1983983 23.8252191,13.4345723 23.75,13.8594 L26.9008614,13.8432042 C27.5082279,13.8404011 28.0051981,13.4249171 27.999959,12.9175532 C27.9973394,12.4092549 27.5014918,12 26.8888863,12 L23.75,12.0146385 Z M1.13757934,12 C0.505056364,12.0021809 -0.00536687833,12.5739823 4.2603418e-05,13.083074 C0.00313373585,13.5902964 0.514716153,14 1.14182964,14 L4.2546,13.9859797 C4.17113942,13.565683 4.1127943,13.4383673 4.11163513,13 C4.11008956,12.8111936 4.2360899,12.1850676 4.25,12 L1.13757934,12 Z" id="Fill-8"></path>
                        <path d="M23.6949729,3.29166554 C23.296407,2.90018032 22.6502888,2.90256951 22.2541363,3.30019835 L20.0834,5.47435779 C20.610569,5.90099818 21.0908478,6.38429641 21.5176858,6.9106 L23.707385,4.7207402 C24.1007793,4.32379398 24.0983658,3.68383339 23.6949729,3.29166554 M6.5997939,18.9739 L4.29149412,21.2791119 C3.89913487,21.6760561 3.90292745,22.3163548 4.30252707,22.7085207 C4.50422316,22.9030678 4.76177357,23 5.02035831,23 C5.28411474,23 5.5475264,22.9006786 5.74715381,22.7003293 L8.0689,20.3766866 C7.52931984,19.9589224 7.03421626,19.4920095 6.5997939,18.9739" id="Fill-6" transform="translate(14.000000, 13.000000) scale(-1, 1) translate(-14.000000, -13.000000) "></path>
                    </g>
                </g>
            </g>
        </g>
    </g>
</svg>