<?xml version="1.0" encoding="UTF-8" standalone="no"?>
<svg width="40px" height="40px" viewBox="0 0 40 40" version="1.1" xmlns="http://www.w3.org/2000/svg" xmlns:xlink="http://www.w3.org/1999/xlink">
    <!-- Generator: Sketch 45 (43475) - http://www.bohemiancoding.com/sketch -->
    <title>10</title>
    <desc>Created with Sketch.</desc>
    <defs></defs>
    <g id="Weather-Icons" stroke="none" stroke-width="1" fill="none" fill-rule="evenodd">
        <g id="10">
            <g id="Icon-/-Weather-symbol-/-Weather-icon-/-10">
                <g id="Icon-/-Weather-icon-/-10">
                    <g id="Icon-/-Weather-symbol-/-Element-/-Sun-peak" transform="translate(16.000000, 0.000000)" fill="#FF9102">
                        <path d="M13.156949,12.8192851 C13.6999998,12.8192851 14.2358577,12.9690203 14.3893353,13 C14.6123779,12.3810796 14.7280296,11.6660773 14.7236818,10.9860955 C14.7073775,7.95390192 12.3058655,5.4872 9.33957319,5.4872 C7.46892861,5.49842453 5.82676136,6.50301964 4.8772,8.01182047 C8.07088269,8.01967764 11.119134,9.98554119 12,13 C12.5799976,12.8724894 12.6684727,12.8192851 13.156949,12.8192851 Z" id="Fill-12" fill-rule="evenodd"></path>
                        <path d="M15.6242731,6.36595995 L17.356331,5.36597126 C17.8346256,5.08983201 17.9985014,4.47824853 17.7223579,3.99996132 C17.4462144,3.5216741 16.8346215,3.3578008 16.3563269,3.63394005 L14.624269,4.63392874 C14.1459744,4.91006799 13.9820986,5.52165147 14.2582421,5.99993868 C14.5343856,6.4782259 15.1459785,6.6420992 15.6242731,6.36595995 L15.6242731,6.36595995 Z" id="Shape" fill-rule="nonzero"></path>
                        <path d="M3.23203098,5.13392874 L1.4999731,4.13394005 C1.02167852,3.8578008 0.410085622,4.0216741 0.133942119,4.49996132 C-0.142201383,4.97824853 0.0216744411,5.58983201 0.499969018,5.86597126 L2.2320269,6.86595995 C2.71032148,7.1420992 3.32191438,6.9782259 3.59805788,6.49993868 C3.87420138,6.02165147 3.71032556,5.41006799 3.23203098,5.13392874 L3.23203098,5.13392874 Z" id="Shape" fill-rule="nonzero"></path>
                        <path d="M16.9729503,11.9823399 L18.9726449,12.0172446 C19.5248453,12.0268832 19.9803059,11.5870522 19.9899446,11.0348546 C19.9995833,10.482657 19.5597501,10.0271987 19.0075497,10.0175601 L17.0078551,9.98265544 C16.4556547,9.97301679 16.0001941,10.4128478 15.9905554,10.9650454 C15.9809167,11.517243 16.4207499,11.9727013 16.9729503,11.9823399 L16.9729503,11.9823399 Z" id="Shape" fill-rule="nonzero"></path>
                        <path d="M10,3.0102 L10,1.0102 C10,0.45791525 9.55228475,0.0102 9,0.0102 C8.44771525,0.0102 8,0.45791525 8,1.0102 L8,3.0102 C8,3.56248475 8.44771525,4.0102 9,4.0102 C9.55228475,4.0102 10,3.56248475 10,3.0102 L10,3.0102 Z" id="Shape" fill-rule="nonzero"></path>
                    </g>
                    <g id="Icon-/-Weather-symbol-/-Element-/-Cloud-light" transform="translate(5.000000, 9.000000)">
                        <path d="M22.3812583,4.93241086 C21.4112425,1.9467802 18.5934703,0 15.1005131,0 C11.4725189,0.0329962746 8.6356165,2.12346993 8.2057487,4.88025546 C7.91541913,4.83342203 7.62171365,4.80787653 7.32463223,4.79297499 C6.84862679,4.75784992 6.42438553,4.78552422 6.38387443,4.79403938 C2.8211481,4.9994678 0,7.42629058 0,10.3874401 C0,13.4816392 3.08334496,16 6.87113296,16 L22.3722559,16 C26.1139062,16 29.9388294,13.8914316 29.9995961,9.85949973 C30.0254782,8.36295902 28.8123957,5.21341139 24.9717182,4.80149015 C24,4.69999981 23.1892298,4.76742948 22.3812583,4.93241086 Z" id="Path" fill="#959595"></path>
                        <path d="M6.69999981,14.6000004 C4.99852744,14.6000004 1.79999995,13.3000002 1.5,11 C1.20000005,8.69999981 3.13390601,6.19999981 6,6.19999981 C6.07581651,6.19999981 9,6 10,8 C10.0357981,8.02983173 10.1639413,8.17502427 10.1999998,8.19999981 C10.7683061,8.5936313 11.2649159,8.28210114 11.5,8 C11.75,7.69999981 11.5215431,7.12462963 11.1091688,6.81982832 C10,6 10,6 9.8340729,5.5983788 C10.0132756,3.34640538 12.2739862,1.32964679 15.0309503,1.29999995 C17.8533924,1.29881408 20.2533222,2.94444301 21,5.5 C19.5457014,6.21389573 18.1153846,7.01193979 17.4846484,9.88886845 C17.3747208,10.390273 17.5140851,10.9016043 18,11.0308645 C18.0769652,11.053396 18.2853168,11.0640689 18.3611333,11.0640689 C18.7631906,11.0640689 19,10.4241833 19,10 C19,8 21.6548312,6.33915977 23,6 C24,5.89208553 29,5.72763899 28.499869,10.5885337 C28.1473103,14.015137 24.5,14.6000004 22.6558042,14.6000004 L6.69999981,14.6000004 Z" id="increase1" fill="#FFFFFF"></path>
                    </g>
                </g>
                <g id="Icon-/-Weather-symbol-/-Element-/-Rain-drop" transform="translate(19.000000, 27.000000)" fill="#1C7499">
                    <g id="Rain-drop">
                        <path d="M0.0316912892,4.21038462 C0.227189717,5.23061538 1.24743151,6 2.4046722,6 C3.07441681,6 3.68316192,5.72584615 4.11890841,5.22830769 C4.67415395,4.59207692 5.21389961,3.27969231 4.63140429,0.641538462 L4.52640514,0.171 L4.04740899,0.336 C0.0176914018,1.71853846 -0.103307625,3.50607692 0.0316912892,4.21038462" id="Rain-Drop"></path>
                    </g>
                </g>
            </g>
        </g>
    </g>
</svg>