<?xml version="1.0" encoding="UTF-8" standalone="no"?>
<svg width="40px" height="40px" viewBox="0 0 40 40" version="1.1" xmlns="http://www.w3.org/2000/svg" xmlns:xlink="http://www.w3.org/1999/xlink">
    <!-- Generator: Sketch 45 (43475) - http://www.bohemiancoding.com/sketch -->
    <title>11</title>
    <desc>Created with Sketch.</desc>
    <defs></defs>
    <g id="Weather-Icons" stroke="none" stroke-width="1" fill="none" fill-rule="evenodd">
        <g id="11">
            <g id="Icon-/-Weather-symbol-/-Weather-icon-/-11">
                <g id="Icon-/-Weather-icon-/-11">
                    <path d="M6.488,35 C7.536,35 8.32,34.8 8.856,34.336 C9.36,33.904 9.64,33.24 9.64,32.352 C9.64,31.448 9.36,30.792 8.856,30.36 C8.32,29.896 7.536,29.696 6.488,29.696 L4.72,29.696 L4.72,35 L6.488,35 Z M5.824,34.04 L5.824,30.656 L6.456,30.656 C7.232,30.656 7.76,30.776 8.088,31.096 C8.36,31.36 8.496,31.76 8.496,32.344 C8.496,32.928 8.36,33.336 8.088,33.6 C7.76,33.92 7.232,34.04 6.456,34.04 L5.824,34.04 Z M13.808,34.888 C13.872,35 13.904,35 14.008,35 L15.12,35 L13.912,33 C14.432,32.672 14.792,32.128 14.792,31.424 C14.792,30.168 13.992,29.696 12.56,29.696 L10.472,29.696 L10.472,35 L11.576,35 L11.576,33.216 L12.688,33.216 C12.808,33.216 12.832,33.216 12.896,33.32 L13.808,34.888 Z M11.576,32.296 L11.576,30.632 L12.592,30.632 C13.04,30.632 13.304,30.696 13.472,30.84 C13.608,30.968 13.664,31.152 13.664,31.424 C13.664,31.712 13.6,31.976 13.48,32.152 C13.408,32.256 13.32,32.296 13.168,32.296 L11.576,32.296 Z M15.864,35 L16.968,35 L16.968,29.696 L15.864,29.696 L15.864,35 Z M20.704,30.624 C20.496,30.88 20.176,31.264 19.864,31.68 L18.024,34.104 C17.936,34.232 17.92,34.28 17.92,34.392 L17.92,35 L22.088,35 L22.088,34.072 L19.272,34.072 C19.52,33.776 19.84,33.368 20.104,33.016 L21.944,30.592 C22.024,30.48 22.056,30.424 22.056,30.312 L22.056,29.696 L17.896,29.696 L17.896,30.624 L20.704,30.624 Z M25.632,30.624 C25.424,30.88 25.104,31.264 24.792,31.68 L22.952,34.104 C22.864,34.232 22.848,34.28 22.848,34.392 L22.848,35 L27.016,35 L27.016,34.072 L24.2,34.072 C24.448,33.776 24.768,33.368 25.032,33.016 L26.872,30.592 C26.952,30.48 26.984,30.424 26.984,30.312 L26.984,29.696 L22.824,29.696 L22.824,30.624 L25.632,30.624 Z M29.04,29.696 L27.936,29.696 L27.936,35 L31.656,35 L31.656,34.072 L29.04,34.072 L29.04,29.696 Z M32.48,29.696 L32.48,35 L36.384,35 L36.384,34.072 L33.584,34.072 L33.584,32.752 L36.04,32.752 L36.04,31.832 L33.584,31.832 L33.584,30.624 L36.304,30.624 L36.304,29.696 L32.48,29.696 Z" id="DRIZZLE" fill="#1C7499"></path>
                    <g id="Icon-/-Weather-symbol-/-Element-/-Cloud-mid" transform="translate(5.000000, 9.000000)" fill="#959595">
                        <path d="M6.42733316,16 C2.8833957,16 -0.0001,13.6067054 -0.0001,10.6646546 C-0.0001,7.88742461 2.62141881,5.55472591 5.96812366,5.35379 C6.80000019,5.30000019 7.85395734,5.46674071 7.85395734,5.46674071 C8.55389561,5.6458621 9.52780972,5.93696468 10.1902513,6.42706409 C10.2644948,6.48208514 10.351987,6.50850494 10.4389794,6.50850494 C10.5627185,6.50850494 10.6849577,6.45469581 10.7657006,6.35192521 C10.9031884,6.17716671 10.8686915,5.92726934 10.6882074,5.79395842 C10.0897602,5.35136616 9.31232873,5.05638546 8.63513845,4.85423763 L8.64763735,4.77061532 C9.04760207,2.10972938 11.7276157,0.155148922 15.0213252,0.122911917 L15.1133171,0.1217 C18.3662802,0.123639068 21.0547931,1.99556676 21.9802115,4.89495805 C19.8404002,5.48807045 18.2840375,6.92782838 17.6798408,8.89525516 C17.6153465,9.10564403 17.7388356,9.32742492 17.9560664,9.39020225 C17.995063,9.40159427 18.0348095,9.40692671 18.0735561,9.40692671 C18.2502905,9.40692671 18.4137761,9.29518792 18.4667714,9.12236849 C19.0277219,7.29552413 20.4770941,6.03658429 22.5474115,5.57484374 L22.9541256,5.49073667 C24.2000008,5.19999981 25.4301573,5.36154627 25.4301573,5.36154627 C28.9383479,5.74911747 30.0237522,8.70789272 29.9995043,10.0829343 C29.945759,13.9676144 26.3263282,16 22.7786411,16 L6.42733316,16 Z" id="Fill-1"></path>
                    </g>
                </g>
            </g>
        </g>
    </g>
</svg>