<?xml version="1.0" encoding="UTF-8" standalone="no"?>
<svg width="40px" height="40px" viewBox="0 0 40 40" version="1.1" xmlns="http://www.w3.org/2000/svg" xmlns:xlink="http://www.w3.org/1999/xlink">
    <!-- Generator: Sketch 45 (43475) - http://www.bohemiancoding.com/sketch -->
    <title>15</title>
    <desc>Created with Sketch.</desc>
    <defs></defs>
    <g id="Weather-Icons" stroke="none" stroke-width="1" fill="none" fill-rule="evenodd">
        <g id="15">
            <g id="Icon-/-Weather-symbol-/-Weather-icon-/-15">
                <g id="Icon-/-Weather-icon-/-15">
                    <path d="M12.0316913,33.2103846 C12.2271897,34.2306154 13.2474315,35 14.4046722,35 C15.0744168,35 15.6831619,34.7258462 16.1189084,34.2283077 C16.6741539,33.5920769 17.2138996,32.2796923 16.6314043,29.6415385 L16.5264051,29.171 L16.047409,29.336 C12.0176914,30.7185385 11.8966924,32.5060769 12.0316913,33.2103846" id="Fill-1" fill="#1C7499"></path>
                    <g id="Icon-/-Weather-symbol-/-Element-/-Cloud-Dark" transform="translate(5.000000, 9.000000)" fill="#1B1B1B">
                        <path d="M6.42733316,16 C2.8833957,16 -0.0001,13.6067054 -0.0001,10.6646546 C-0.0001,7.88742461 2.62141881,5.55472591 5.96812366,5.35379 C6.5,5.34215559 7.44599332,5.39911571 7.69672121,5.44080567 L7.85395734,5.46674071 C8.55389561,5.6458621 9.52780972,5.93696468 10.1902513,6.42706409 C10.2644948,6.48208514 10.351987,6.50850494 10.4389794,6.50850494 C10.5627185,6.50850494 10.6849577,6.45469581 10.7657006,6.35192521 C10.9031884,6.17716671 10.8686915,5.92726934 10.6882074,5.79395842 C10.0897602,5.35136616 9.31232873,5.05638546 8.63513845,4.85423763 L8.64763735,4.77061532 C9.04760207,2.10972938 11.7276157,0.155148922 15.0213252,0.122911917 L15.1133171,0.1217 C18.3662802,0.123639068 21.0547931,1.99556676 21.9802115,4.89495805 C19.8404002,5.48807045 18.2840375,6.92782838 17.6798408,8.89525516 C17.6153465,9.10564403 17.7388356,9.32742492 17.9560664,9.39020225 C17.995063,9.40159427 18.0348095,9.40692671 18.0735561,9.40692671 C18.2502905,9.40692671 18.4137761,9.29518792 18.4667714,9.12236849 C19.0277219,7.29552413 20.4770941,6.03658429 22.5474115,5.57484374 C22.5474115,5.57484374 23.7000008,5.31306957 24.651476,5.31306957 C24.7919636,5.31306957 25.4301573,5.36154627 25.4301573,5.36154627 C28.9383479,5.74911747 30.0237522,8.70789272 29.9995043,10.0829343 C29.945759,13.9676144 26.3263282,16 22.7786411,16 L6.42733316,16 Z" id="Fill-1"></path>
                    </g>
                </g>
                <g id="Icon-/-Weather-symbol-/-Element-/-Rain-drop" transform="translate(19.000000, 27.000000)" fill="#1C7499">
                    <g id="Rain-drop">
                        <path d="M0.0316912892,4.21038462 C0.227189717,5.23061538 1.24743151,6 2.4046722,6 C3.07441681,6 3.68316192,5.72584615 4.11890841,5.22830769 C4.67415395,4.59207692 5.21389961,3.27969231 4.63140429,0.641538462 L4.52640514,0.171 L4.04740899,0.336 C0.0176914018,1.71853846 -0.103307625,3.50607692 0.0316912892,4.21038462" id="Rain-Drop"></path>
                    </g>
                </g>
                <g id="Icon-/-Weather-symbol-/-Element-/-Rain-drop" transform="translate(12.000000, 29.000000)" fill="#1C7499">
                    <g id="Rain-drop">
                        <path d="M0.0316912892,4.21038462 C0.227189717,5.23061538 1.24743151,6 2.4046722,6 C3.07441681,6 3.68316192,5.72584615 4.11890841,5.22830769 C4.67415395,4.59207692 5.21389961,3.27969231 4.63140429,0.641538462 L4.52640514,0.171 L4.04740899,0.336 C0.0176914018,1.71853846 -0.103307625,3.50607692 0.0316912892,4.21038462" id="Rain-Drop"></path>
                    </g>
                </g>
            </g>
        </g>
    </g>
</svg>