<?xml version="1.0" encoding="UTF-8" standalone="no"?>
<svg width="40px" height="40px" viewBox="0 0 40 40" version="1.1" xmlns="http://www.w3.org/2000/svg" xmlns:xlink="http://www.w3.org/1999/xlink">
    <!-- Generator: Sketch 45 (43475) - http://www.bohemiancoding.com/sketch -->
    <title>18</title>
    <desc>Created with Sketch.</desc>
    <defs></defs>
    <g id="Weather-Icons" stroke="none" stroke-width="1" fill="none" fill-rule="evenodd">
        <g id="18">
            <g id="Icon-/-Weather-symbol-/-Weather-icon-/-18">
                <g id="Icon-/-Weather-icon-/-18">
                    <g id="Icon-/-Weather-symbol-/-Element-/-Snow" transform="translate(23.000000, 31.000000) rotate(-30.000000) translate(-23.000000, -31.000000) translate(19.000000, 27.000000)" fill="#636363">
                        <path d="M6.81355476,4.12361608 L5.07321404,3.61595172 L6.3122193,2.30162435 C6.44221985,2.15895833 6.51388682,1.97629249 6.51388682,1.78729335 C6.51388682,1.58662759 6.43488648,1.39729512 6.27588581,1.2399625 C6.13988523,1.10829643 5.94921776,1.03296344 5.75055025,1.03296344 C5.53754935,1.0356301 5.34088185,1.11929638 5.19521456,1.26996237 L4.04087633,2.49495681 L3.5838744,0.869964181 C3.34609243,0.150000006 2.64620376,0.349966541 2.64620376,0.349966541 C1.94609257,0.550000012 2.11953486,1.28862895 2.11953486,1.28862895 L2.57420345,2.89062168 L0.892862989,2.40529055 C0.396092526,2.3499999 0.133859771,2.61462293 0.0181926138,2.98695457 C0.0181926138,2.98695457 -0.151807373,3.5999999 0.547528191,3.88528383 L2.26153546,4.3846149 L1.02453021,5.70060892 C0.746092521,6 0.796092532,6.5 1.07319709,6.74127087 C1.07319709,6.74127087 1.19186426,6.83827043 1.20253097,6.84127041 C1.59609254,7.05000019 1.99609252,6.9000001 2.12386821,6.74393752 L3.3095399,5.49094321 L3.7728752,7.13160243 C3.99609252,7.80000019 4.71287918,7.63293349 4.71287918,7.63293349 C5.39609262,7.4000001 5.24121476,6.78893732 5.24121476,6.78893732 C5.24121476,6.75793746 4.78121281,5.11627824 4.78121281,5.11627824 L6.38655295,5.57927614 C6.38655295,5.57927614 7.04609271,5.75 7.30855685,5.0999999 C7.30855685,5.0999999 7.49609252,4.3499999 6.81355476,4.12361608 Z" id="Fill-1"></path>
                    </g>
                    <g id="Icon-/-Weather-symbol-/-Element-/-Cloud-mid" transform="translate(5.000000, 9.000000)" fill="#959595">
                        <path d="M6.42733316,16 C2.8833957,16 -0.0001,13.6067054 -0.0001,10.6646546 C-0.0001,7.88742461 2.62141881,5.55472591 5.96812366,5.35379 C6.80000019,5.30000019 7.85395734,5.46674071 7.85395734,5.46674071 C8.55389561,5.6458621 9.52780972,5.93696468 10.1902513,6.42706409 C10.2644948,6.48208514 10.351987,6.50850494 10.4389794,6.50850494 C10.5627185,6.50850494 10.6849577,6.45469581 10.7657006,6.35192521 C10.9031884,6.17716671 10.8686915,5.92726934 10.6882074,5.79395842 C10.0897602,5.35136616 9.31232873,5.05638546 8.63513845,4.85423763 L8.64763735,4.77061532 C9.04760207,2.10972938 11.7276157,0.155148922 15.0213252,0.122911917 L15.1133171,0.1217 C18.3662802,0.123639068 21.0547931,1.99556676 21.9802115,4.89495805 C19.8404002,5.48807045 18.2840375,6.92782838 17.6798408,8.89525516 C17.6153465,9.10564403 17.7388356,9.32742492 17.9560664,9.39020225 C17.995063,9.40159427 18.0348095,9.40692671 18.0735561,9.40692671 C18.2502905,9.40692671 18.4137761,9.29518792 18.4667714,9.12236849 C19.0277219,7.29552413 20.4770941,6.03658429 22.5474115,5.57484374 L22.9541256,5.49073667 C24.2000008,5.19999981 25.4301573,5.36154627 25.4301573,5.36154627 C28.9383479,5.74911747 30.0237522,8.70789272 29.9995043,10.0829343 C29.945759,13.9676144 26.3263282,16 22.7786411,16 L6.42733316,16 Z" id="Fill-1"></path>
                    </g>
                </g>
                <g id="Icon-/-Weather-symbol-/-Element-/-Rain-drop" transform="translate(12.000000, 29.000000)" fill="#1C7499">
                    <g id="Rain-drop">
                        <path d="M0.0316912892,4.21038462 C0.227189717,5.23061538 1.24743151,6 2.4046722,6 C3.07441681,6 3.68316192,5.72584615 4.11890841,5.22830769 C4.67415395,4.59207692 5.21389961,3.27969231 4.63140429,0.641538462 L4.52640514,0.171 L4.04740899,0.336 C0.0176914018,1.71853846 -0.103307625,3.50607692 0.0316912892,4.21038462" id="Rain-Drop"></path>
                    </g>
                </g>
            </g>
        </g>
    </g>
</svg>