<?xml version="1.0" encoding="UTF-8" standalone="no"?>
<svg width="40px" height="40px" viewBox="0 0 40 40" version="1.1" xmlns="http://www.w3.org/2000/svg" xmlns:xlink="http://www.w3.org/1999/xlink">
    <!-- Generator: Sketch 45 (43475) - http://www.bohemiancoding.com/sketch -->
    <title>19</title>
    <desc>Created with Sketch.</desc>
    <defs></defs>
    <g id="Weather-Icons" stroke="none" stroke-width="1" fill="none" fill-rule="evenodd">
        <g id="19">
            <g id="Icon-/-Weather-symbol-/-Weather-icon-/-19">
                <g id="Icon-/-Weather-icon-/-19">
                    <text id="HAIL" font-family="FSEmeric-SemiBold, FS Emeric" font-size="8" font-weight="500" fill="#666666">
                        <tspan x="14.396" y="35">HAIL</tspan>
                    </text>
                    <g id="Icon-/-Weather-symbol-/-Element-/-Cloud-mid" transform="translate(8.000000, 9.000000)" fill="#959595">
                        <path d="M6.42733316,16 C2.8833957,16 -0.0001,13.6067054 -0.0001,10.6646546 C-0.0001,7.88742461 2.62141881,5.55472591 5.96812366,5.35379 C6.80000019,5.30000019 7.85395734,5.46674071 7.85395734,5.46674071 C8.55389561,5.6458621 9.52780972,5.93696468 10.1902513,6.42706409 C10.2644948,6.48208514 10.351987,6.50850494 10.4389794,6.50850494 C10.5627185,6.50850494 10.6849577,6.45469581 10.7657006,6.35192521 C10.9031884,6.17716671 10.8686915,5.92726934 10.6882074,5.79395842 C10.0897602,5.35136616 9.31232873,5.05638546 8.63513845,4.85423763 L8.64763735,4.77061532 C9.04760207,2.10972938 11.7276157,0.155148922 15.0213252,0.122911917 L15.1133171,0.1217 C18.3662802,0.123639068 21.0547931,1.99556676 21.9802115,4.89495805 C19.8404002,5.48807045 18.2840375,6.92782838 17.6798408,8.89525516 C17.6153465,9.10564403 17.7388356,9.32742492 17.9560664,9.39020225 C17.995063,9.40159427 18.0348095,9.40692671 18.0735561,9.40692671 C18.2502905,9.40692671 18.4137761,9.29518792 18.4667714,9.12236849 C19.0277219,7.29552413 20.4770941,6.03658429 22.5474115,5.57484374 L22.9541256,5.49073667 C24.2000008,5.19999981 25.4301573,5.36154627 25.4301573,5.36154627 C28.9383479,5.74911747 30.0237522,8.70789272 29.9995043,10.0829343 C29.945759,13.9676144 26.3263282,16 22.7786411,16 L6.42733316,16 Z" id="Fill-1"></path>
                    </g>
                </g>
                <g id="Icon-/-Weather-symbol-/-Element-/-Moon-behind-cloud" transform="translate(3.000000, 8.000000)" fill="#636363">
                    <g id="Moon-behind-cloud">
                        <path d="M12.8672575,5.19824673 C12.6827027,4.3045233 12.3103226,3.46070064 11.7791779,2.72163851 C10.9974283,1.63232111 9.83009084,0.864031241 8.48501993,0.321494447 C7.81192405,0.0500000007 6.45570271,2.19184835e-06 6.45570271,2.19184835e-06 C4,2.19184835e-06 2.87403026,0.825276124 2.87403026,0.825276124 L4.18066092,1.75274261 C5.27054134,2.52498689 5.90797651,3.73251622 5.90686211,4.95109339 C5.90686211,5.32009138 5.85002786,5.69185132 5.72800137,6.05919213 C5.47057563,6.84137947 4.96519652,7.47276374 4.30435901,7.92020142 C3.64407869,8.36487713 2.82611118,8.61732036 1.96635378,8.61732036 C1,8.61732036 0,8.46375533 0,8.46375533 C0,8.46375533 1.5,12.1653354 4.39852557,12.674641 L4.46148901,12.6950795 L4.39852557,12.674641 C4.49592498,12.7063233 4.59362525,12.7356309 4.69154466,12.7625905 C4.32259166,12.1806307 4.14111136,11.4823874 4.19999981,10.6646546 C4.4000001,7.88742461 7.30000019,5.40093572 10.5,5.19999981 C10.5997412,5.1883654 12,5.19999981 12,5.19999981 L12.7969743,5.19999981 C12.8192758,5.19999981 12.8427699,5.19939317 12.8672575,5.19824673 Z"></path>
                    </g>
                </g>
            </g>
        </g>
    </g>
</svg>