<?xml version="1.0" encoding="UTF-8" standalone="no"?>
<svg width="40px" height="40px" viewBox="0 0 40 40" version="1.1" xmlns="http://www.w3.org/2000/svg" xmlns:xlink="http://www.w3.org/1999/xlink">
    <!-- Generator: Sketch 45 (43475) - http://www.bohemiancoding.com/sketch -->
    <title>20</title>
    <desc>Created with Sketch.</desc>
    <defs></defs>
    <g id="Weather-Icons" stroke="none" stroke-width="1" fill="none" fill-rule="evenodd">
        <g id="20">
            <g id="Icon-/-Weather-symbol-/-Weather-icon-/-20">
                <g id="Icon-/-Weather-icon-/-20">
                    <g id="HAIL-+-Fill-1-+-Half_sun" transform="translate(11.000000, 0.000000)">
                        <text id="HAIL" font-family="FSEmeric-SemiBold, FS Emeric" font-size="8" font-weight="500" fill="#666666">
                            <tspan x="0.396" y="35">HAIL</tspan>
                        </text>
                        <g id="Icon-/-Weather-symbol-/-Element-/-Sun-peak" transform="translate(5.000000, 0.000000)" fill="#FF9102">
                            <path d="M13.156949,12.8192851 C13.6999998,12.8192851 14.2358577,12.9690203 14.3893353,13 C14.6123779,12.3810796 14.7280296,11.6660773 14.7236818,10.9860955 C14.7073775,7.95390192 12.3058655,5.4872 9.33957319,5.4872 C7.46892861,5.49842453 5.82676136,6.50301964 4.8772,8.01182047 C8.07088269,8.01967764 11.119134,9.98554119 12,13 C12.5799976,12.8724894 12.6684727,12.8192851 13.156949,12.8192851 Z" id="Fill-12" fill-rule="evenodd"></path>
                            <path d="M15.6242731,6.36595995 L17.356331,5.36597126 C17.8346256,5.08983201 17.9985014,4.47824853 17.7223579,3.99996132 C17.4462144,3.5216741 16.8346215,3.3578008 16.3563269,3.63394005 L14.624269,4.63392874 C14.1459744,4.91006799 13.9820986,5.52165147 14.2582421,5.99993868 C14.5343856,6.4782259 15.1459785,6.6420992 15.6242731,6.36595995 L15.6242731,6.36595995 Z" id="Shape" fill-rule="nonzero"></path>
                            <path d="M3.23203098,5.13392874 L1.4999731,4.13394005 C1.02167852,3.8578008 0.410085622,4.0216741 0.133942119,4.49996132 C-0.142201383,4.97824853 0.0216744411,5.58983201 0.499969018,5.86597126 L2.2320269,6.86595995 C2.71032148,7.1420992 3.32191438,6.9782259 3.59805788,6.49993868 C3.87420138,6.02165147 3.71032556,5.41006799 3.23203098,5.13392874 L3.23203098,5.13392874 Z" id="Shape" fill-rule="nonzero"></path>
                            <path d="M16.9729503,11.9823399 L18.9726449,12.0172446 C19.5248453,12.0268832 19.9803059,11.5870522 19.9899446,11.0348546 C19.9995833,10.482657 19.5597501,10.0271987 19.0075497,10.0175601 L17.0078551,9.98265544 C16.4556547,9.97301679 16.0001941,10.4128478 15.9905554,10.9650454 C15.9809167,11.517243 16.4207499,11.9727013 16.9729503,11.9823399 L16.9729503,11.9823399 Z" id="Shape" fill-rule="nonzero"></path>
                            <path d="M10,3.0102 L10,1.0102 C10,0.45791525 9.55228475,0.0102 9,0.0102 C8.44771525,0.0102 8,0.45791525 8,1.0102 L8,3.0102 C8,3.56248475 8.44771525,4.0102 9,4.0102 C9.55228475,4.0102 10,3.56248475 10,3.0102 L10,3.0102 Z" id="Shape" fill-rule="nonzero"></path>
                        </g>
                    </g>
                    <g id="Icon-/-Weather-symbol-/-Element-/-Cloud-mid" transform="translate(5.000000, 9.000000)" fill="#959595">
                        <path d="M6.42733316,16 C2.8833957,16 -0.0001,13.6067054 -0.0001,10.6646546 C-0.0001,7.88742461 2.62141881,5.55472591 5.96812366,5.35379 C6.80000019,5.30000019 7.85395734,5.46674071 7.85395734,5.46674071 C8.55389561,5.6458621 9.52780972,5.93696468 10.1902513,6.42706409 C10.2644948,6.48208514 10.351987,6.50850494 10.4389794,6.50850494 C10.5627185,6.50850494 10.6849577,6.45469581 10.7657006,6.35192521 C10.9031884,6.17716671 10.8686915,5.92726934 10.6882074,5.79395842 C10.0897602,5.35136616 9.31232873,5.05638546 8.63513845,4.85423763 L8.64763735,4.77061532 C9.04760207,2.10972938 11.7276157,0.155148922 15.0213252,0.122911917 L15.1133171,0.1217 C18.3662802,0.123639068 21.0547931,1.99556676 21.9802115,4.89495805 C19.8404002,5.48807045 18.2840375,6.92782838 17.6798408,8.89525516 C17.6153465,9.10564403 17.7388356,9.32742492 17.9560664,9.39020225 C17.995063,9.40159427 18.0348095,9.40692671 18.0735561,9.40692671 C18.2502905,9.40692671 18.4137761,9.29518792 18.4667714,9.12236849 C19.0277219,7.29552413 20.4770941,6.03658429 22.5474115,5.57484374 L22.9541256,5.49073667 C24.2000008,5.19999981 25.4301573,5.36154627 25.4301573,5.36154627 C28.9383479,5.74911747 30.0237522,8.70789272 29.9995043,10.0829343 C29.945759,13.9676144 26.3263282,16 22.7786411,16 L6.42733316,16 Z" id="Fill-1"></path>
                    </g>
                </g>
            </g>
        </g>
    </g>
</svg>