<?xml version="1.0" encoding="UTF-8" standalone="no"?>
<svg width="40px" height="40px" viewBox="0 0 40 40" version="1.1" xmlns="http://www.w3.org/2000/svg" xmlns:xlink="http://www.w3.org/1999/xlink">
    <!-- Generator: Sketch 45 (43475) - http://www.bohemiancoding.com/sketch -->
    <title>25</title>
    <desc>Created with Sketch.</desc>
    <defs></defs>
    <g id="Weather-Icons" stroke="none" stroke-width="1" fill="none" fill-rule="evenodd">
        <g id="25">
            <g id="Icon-/-Weather-symbol-/-Weather-icon-/-25">
                <g id="Icon-/-Weather-icon-/-25">
                    <g id="Icon-/-Weather-symbol-/-Element-/-Snow" transform="translate(26.000000, 31.000000) rotate(-30.000000) translate(-26.000000, -31.000000) translate(22.000000, 27.000000)" fill="#636363">
                        <path d="M6.81355476,4.12361608 L5.07321404,3.61595172 L6.3122193,2.30162435 C6.44221985,2.15895833 6.51388682,1.97629249 6.51388682,1.78729335 C6.51388682,1.58662759 6.43488648,1.39729512 6.27588581,1.2399625 C6.13988523,1.10829643 5.94921776,1.03296344 5.75055025,1.03296344 C5.53754935,1.0356301 5.34088185,1.11929638 5.19521456,1.26996237 L4.04087633,2.49495681 L3.5838744,0.869964181 C3.34609243,0.150000006 2.64620376,0.349966541 2.64620376,0.349966541 C1.94609257,0.550000012 2.11953486,1.28862895 2.11953486,1.28862895 L2.57420345,2.89062168 L0.892862989,2.40529055 C0.396092526,2.3499999 0.133859771,2.61462293 0.0181926138,2.98695457 C0.0181926138,2.98695457 -0.151807373,3.5999999 0.547528191,3.88528383 L2.26153546,4.3846149 L1.02453021,5.70060892 C0.746092521,6 0.796092532,6.5 1.07319709,6.74127087 C1.07319709,6.74127087 1.19186426,6.83827043 1.20253097,6.84127041 C1.59609254,7.05000019 1.99609252,6.9000001 2.12386821,6.74393752 L3.3095399,5.49094321 L3.7728752,7.13160243 C3.99609252,7.80000019 4.71287918,7.63293349 4.71287918,7.63293349 C5.39609262,7.4000001 5.24121476,6.78893732 5.24121476,6.78893732 C5.24121476,6.75793746 4.78121281,5.11627824 4.78121281,5.11627824 L6.38655295,5.57927614 C6.38655295,5.57927614 7.04609271,5.75 7.30855685,5.0999999 C7.30855685,5.0999999 7.49609252,4.3499999 6.81355476,4.12361608 Z" id="Fill-1"></path>
                    </g>
                    <g id="Icon-/-Weather-symbol-/-Element-/-Snow" transform="translate(18.000000, 33.000000) rotate(-30.000000) translate(-18.000000, -33.000000) translate(14.000000, 29.000000)" fill="#636363">
                        <path d="M6.81355476,4.12361608 L5.07321404,3.61595172 L6.3122193,2.30162435 C6.44221985,2.15895833 6.51388682,1.97629249 6.51388682,1.78729335 C6.51388682,1.58662759 6.43488648,1.39729512 6.27588581,1.2399625 C6.13988523,1.10829643 5.94921776,1.03296344 5.75055025,1.03296344 C5.53754935,1.0356301 5.34088185,1.11929638 5.19521456,1.26996237 L4.04087633,2.49495681 L3.5838744,0.869964181 C3.34609243,0.150000006 2.64620376,0.349966541 2.64620376,0.349966541 C1.94609257,0.550000012 2.11953486,1.28862895 2.11953486,1.28862895 L2.57420345,2.89062168 L0.892862989,2.40529055 C0.396092526,2.3499999 0.133859771,2.61462293 0.0181926138,2.98695457 C0.0181926138,2.98695457 -0.151807373,3.5999999 0.547528191,3.88528383 L2.26153546,4.3846149 L1.02453021,5.70060892 C0.746092521,6 0.796092532,6.5 1.07319709,6.74127087 C1.07319709,6.74127087 1.19186426,6.83827043 1.20253097,6.84127041 C1.59609254,7.05000019 1.99609252,6.9000001 2.12386821,6.74393752 L3.3095399,5.49094321 L3.7728752,7.13160243 C3.99609252,7.80000019 4.71287918,7.63293349 4.71287918,7.63293349 C5.39609262,7.4000001 5.24121476,6.78893732 5.24121476,6.78893732 C5.24121476,6.75793746 4.78121281,5.11627824 4.78121281,5.11627824 L6.38655295,5.57927614 C6.38655295,5.57927614 7.04609271,5.75 7.30855685,5.0999999 C7.30855685,5.0999999 7.49609252,4.3499999 6.81355476,4.12361608 Z" id="Fill-1"></path>
                    </g>
                    <g id="Icon-/-Weather-symbol-/-Element-/-Cloud-light" transform="translate(8.000000, 9.000000)">
                        <path d="M22.3812583,4.93241086 C21.4112425,1.9467802 18.5934703,0 15.1005131,0 C11.4725189,0.0329962746 8.6356165,2.12346993 8.2057487,4.88025546 C7.91541913,4.83342203 7.62171365,4.80787653 7.32463223,4.79297499 C6.84862679,4.75784992 6.42438553,4.78552422 6.38387443,4.79403938 C2.8211481,4.9994678 0,7.42629058 0,10.3874401 C0,13.4816392 3.08334496,16 6.87113296,16 L22.3722559,16 C26.1139062,16 29.9388294,13.8914316 29.9995961,9.85949973 C30.0254782,8.36295902 28.8123957,5.21341139 24.9717182,4.80149015 C24,4.69999981 23.1892298,4.76742948 22.3812583,4.93241086 Z" id="Path" fill="#959595"></path>
                        <path d="M6.69999981,14.6000004 C4.99852744,14.6000004 1.79999995,13.3000002 1.5,11 C1.20000005,8.69999981 3.13390601,6.19999981 6,6.19999981 C6.07581651,6.19999981 9,6 10,8 C10.0357981,8.02983173 10.1639413,8.17502427 10.1999998,8.19999981 C10.7683061,8.5936313 11.2649159,8.28210114 11.5,8 C11.75,7.69999981 11.5215431,7.12462963 11.1091688,6.81982832 C10,6 10,6 9.8340729,5.5983788 C10.0132756,3.34640538 12.2739862,1.32964679 15.0309503,1.29999995 C17.8533924,1.29881408 20.2533222,2.94444301 21,5.5 C19.5457014,6.21389573 18.1153846,7.01193979 17.4846484,9.88886845 C17.3747208,10.390273 17.5140851,10.9016043 18,11.0308645 C18.0769652,11.053396 18.2853168,11.0640689 18.3611333,11.0640689 C18.7631906,11.0640689 19,10.4241833 19,10 C19,8 21.6548312,6.33915977 23,6 C24,5.89208553 29,5.72763899 28.499869,10.5885337 C28.1473103,14.015137 24.5,14.6000004 22.6558042,14.6000004 L6.69999981,14.6000004 Z" id="increase1" fill="#FFFFFF"></path>
                    </g>
                </g>
                <g id="Icon-/-Weather-symbol-/-Element-/-Moon-behind-cloud" transform="translate(3.000000, 8.000000)" fill="#636363">
                    <g id="Moon-behind-cloud">
                        <path d="M12.8672575,5.19824673 C12.6827027,4.3045233 12.3103226,3.46070064 11.7791779,2.72163851 C10.9974283,1.63232111 9.83009084,0.864031241 8.48501993,0.321494447 C7.81192405,0.0500000007 6.45570271,2.19184835e-06 6.45570271,2.19184835e-06 C4,2.19184835e-06 2.87403026,0.825276124 2.87403026,0.825276124 L4.18066092,1.75274261 C5.27054134,2.52498689 5.90797651,3.73251622 5.90686211,4.95109339 C5.90686211,5.32009138 5.85002786,5.69185132 5.72800137,6.05919213 C5.47057563,6.84137947 4.96519652,7.47276374 4.30435901,7.92020142 C3.64407869,8.36487713 2.82611118,8.61732036 1.96635378,8.61732036 C1,8.61732036 0,8.46375533 0,8.46375533 C0,8.46375533 1.5,12.1653354 4.39852557,12.674641 L4.46148901,12.6950795 L4.39852557,12.674641 C4.49592498,12.7063233 4.59362525,12.7356309 4.69154466,12.7625905 C4.32259166,12.1806307 4.14111136,11.4823874 4.19999981,10.6646546 C4.4000001,7.88742461 7.30000019,5.40093572 10.5,5.19999981 C10.5997412,5.1883654 12,5.19999981 12,5.19999981 L12.7969743,5.19999981 C12.8192758,5.19999981 12.8427699,5.19939317 12.8672575,5.19824673 Z"></path>
                    </g>
                </g>
            </g>
        </g>
    </g>
</svg>