<?xml version="1.0" encoding="UTF-8" standalone="no"?>
<svg width="40px" height="40px" viewBox="0 0 40 40" version="1.1" xmlns="http://www.w3.org/2000/svg" xmlns:xlink="http://www.w3.org/1999/xlink">
    <!-- Generator: Sketch 45 (43475) - http://www.bohemiancoding.com/sketch -->
    <title>28</title>
    <desc>Created with Sketch.</desc>
    <defs></defs>
    <g id="Weather-Icons" stroke="none" stroke-width="1" fill="none" fill-rule="evenodd">
        <g id="28">
            <g id="Icon-/-Weather-symbol-/-Weather-icon-/-28">
                <g id="Icon-/-Weather-icon-/-28" fill="#1B1B1B">
                    <g id="Icon-/-Weather-symbol-/-Element-/-Dark_cloud_with_lightning" transform="translate(8.000000, 9.000000)">
                        <path d="M25.3427717,5.26540032 C25.3092746,5.26149243 25.2337813,5.25343239 25.2337813,5.25343239 C25.1717867,5.24781479 25.1307903,5.2456166 25.089044,5.24439538 C24.930058,5.23511413 24.7918201,5.23120624 24.6515825,5.23120624 C24.1043806,5.23120624 23.5174322,5.29299983 22.9542317,5.41023669 L22.5475175,5.49474492 C20.4769495,5.9600287 19.0278269,7.22887342 18.4668763,9.06949207 C18.4138809,9.24363765 18.2503953,9.35623388 18.0736608,9.35623388 C18.0349142,9.35623388 17.9951677,9.35086053 17.9559212,9.33962533 C17.7386903,9.27636628 17.6152012,9.05288352 17.6796955,8.84063596 C18.2841423,6.85811187 19.8405055,5.40730577 21.9803173,4.80988628 C21.0548987,1.88824612 18.3663851,0.00195394761 15.1134211,0 L15.0214292,0.000976973805 C11.7277188,0.0334613528 9.04745449,2.00328479 8.64773963,4.68458939 L8.63499075,4.76860914 C9.31218121,4.97255242 10.0898628,5.26955246 10.6883102,5.71578524 C10.8685444,5.85011914 10.9032913,6.1016899 10.7658034,6.27803367 C10.6848105,6.38134865 10.5625713,6.43581494 10.4390821,6.43581494 C10.3520898,6.43581494 10.2645975,6.40894816 10.190354,6.35374914 C9.52791224,5.85988888 8.5537479,5.5665525 7.85380944,5.38605659 L7.69657326,5.35967829 C7.44584531,5.31766842 7.17161942,5.28884769 6.85789701,5.27126216 C6.65366496,5.25611907 6.46943116,5.24879177 6.29444655,5.24879177 C6.21170382,5.24879177 6.14970928,5.25050147 6.11171262,5.25172269 C6.08846466,5.25660756 6.00797174,5.2697967 6.00797174,5.2697967 C2.6215195,5.47447271 0,7.82531593 0,10.6238574 C0,13.5882402 2.88324649,15.9999 6.42718488,15.9999 L15.859533,15.9999 L21.8400072,12.3775254 L20.8265963,15.9999 L22.7787471,15.9999 C26.3261852,15.9999 29.945617,13.9519187 29.9996122,10.0374289 C30.0236101,8.65183577 28.9384555,5.67035596 25.430264,5.27981068 L25.3427717,5.26540032 Z" id="Fill-1"></path>
                    </g>
                </g>
                <g id="Icon-/-Weather-symbol-/-Element-/-Moon-behind-cloud" transform="translate(3.000000, 8.000000)" fill="#636363">
                    <g id="Moon-behind-cloud">
                        <path d="M12.8672575,5.19824673 C12.6827027,4.3045233 12.3103226,3.46070064 11.7791779,2.72163851 C10.9974283,1.63232111 9.83009084,0.864031241 8.48501993,0.321494447 C7.81192405,0.0500000007 6.45570271,2.19184835e-06 6.45570271,2.19184835e-06 C4,2.19184835e-06 2.87403026,0.825276124 2.87403026,0.825276124 L4.18066092,1.75274261 C5.27054134,2.52498689 5.90797651,3.73251622 5.90686211,4.95109339 C5.90686211,5.32009138 5.85002786,5.69185132 5.72800137,6.05919213 C5.47057563,6.84137947 4.96519652,7.47276374 4.30435901,7.92020142 C3.64407869,8.36487713 2.82611118,8.61732036 1.96635378,8.61732036 C1,8.61732036 0,8.46375533 0,8.46375533 C0,8.46375533 1.5,12.1653354 4.39852557,12.674641 L4.46148901,12.6950795 L4.39852557,12.674641 C4.49592498,12.7063233 4.59362525,12.7356309 4.69154466,12.7625905 C4.32259166,12.1806307 4.14111136,11.4823874 4.19999981,10.6646546 C4.4000001,7.88742461 7.30000019,5.40093572 10.5,5.19999981 C10.5997412,5.1883654 12,5.19999981 12,5.19999981 L12.7969743,5.19999981 C12.8192758,5.19999981 12.8427699,5.19939317 12.8672575,5.19824673 Z"></path>
                    </g>
                </g>
                <g id="Icon-/-Weather-symbol-/-Element-/-Rain-drop" transform="translate(15.000000, 29.000000)" fill="#1C7499">
                    <g id="Rain-drop">
                        <path d="M0.0316912892,4.21038462 C0.227189717,5.23061538 1.24743151,6 2.4046722,6 C3.07441681,6 3.68316192,5.72584615 4.11890841,5.22830769 C4.67415395,4.59207692 5.21389961,3.27969231 4.63140429,0.641538462 L4.52640514,0.171 L4.04740899,0.336 C0.0176914018,1.71853846 -0.103307625,3.50607692 0.0316912892,4.21038462" id="Rain-Drop"></path>
                    </g>
                </g>
                <g id="Icon-/-Weather-symbol-/-Element-/-Lightning" transform="translate(22.000000, 23.000000)" fill="#FF9103">
                    <g id="Lightning">
                        <polygon points="1.20181901 3.35317603 4.38958293 5.02864483 0 10.815 9.0001 4.92455759 5.73130451 3.21730301 6.610788 0"></polygon>
                    </g>
                </g>
            </g>
        </g>
    </g>
</svg>