<?xml version="1.0" encoding="UTF-8" standalone="no"?>
<svg width="40px" height="40px" viewBox="0 0 40 40" version="1.1" xmlns="http://www.w3.org/2000/svg" xmlns:xlink="http://www.w3.org/1999/xlink">
    <!-- Generator: Sketch 45 (43475) - http://www.bohemiancoding.com/sketch -->
    <title>29</title>
    <desc>Created with Sketch.</desc>
    <defs></defs>
    <g id="Weather-Icons" stroke="none" stroke-width="1" fill="none" fill-rule="evenodd">
        <g id="29">
            <g id="Icon-/-Weather-symbol-/-Weather-icon-/-29">
                <g id="Icon-/-Weather-icon-/-29">
                    <g id="Icon-/-Weather-symbol-/-Element-/-Sun-peak" transform="translate(16.000000, 0.000000)" fill="#FF9102">
                        <path d="M13.156949,12.8192851 C13.6999998,12.8192851 14.2358577,12.9690203 14.3893353,13 C14.6123779,12.3810796 14.7280296,11.6660773 14.7236818,10.9860955 C14.7073775,7.95390192 12.3058655,5.4872 9.33957319,5.4872 C7.46892861,5.49842453 5.82676136,6.50301964 4.8772,8.01182047 C8.07088269,8.01967764 11.119134,9.98554119 12,13 C12.5799976,12.8724894 12.6684727,12.8192851 13.156949,12.8192851 Z" id="Fill-12" fill-rule="evenodd"></path>
                        <path d="M15.6242731,6.36595995 L17.356331,5.36597126 C17.8346256,5.08983201 17.9985014,4.47824853 17.7223579,3.99996132 C17.4462144,3.5216741 16.8346215,3.3578008 16.3563269,3.63394005 L14.624269,4.63392874 C14.1459744,4.91006799 13.9820986,5.52165147 14.2582421,5.99993868 C14.5343856,6.4782259 15.1459785,6.6420992 15.6242731,6.36595995 L15.6242731,6.36595995 Z" id="Shape" fill-rule="nonzero"></path>
                        <path d="M3.23203098,5.13392874 L1.4999731,4.13394005 C1.02167852,3.8578008 0.410085622,4.0216741 0.133942119,4.49996132 C-0.142201383,4.97824853 0.0216744411,5.58983201 0.499969018,5.86597126 L2.2320269,6.86595995 C2.71032148,7.1420992 3.32191438,6.9782259 3.59805788,6.49993868 C3.87420138,6.02165147 3.71032556,5.41006799 3.23203098,5.13392874 L3.23203098,5.13392874 Z" id="Shape" fill-rule="nonzero"></path>
                        <path d="M16.9729503,11.9823399 L18.9726449,12.0172446 C19.5248453,12.0268832 19.9803059,11.5870522 19.9899446,11.0348546 C19.9995833,10.482657 19.5597501,10.0271987 19.0075497,10.0175601 L17.0078551,9.98265544 C16.4556547,9.97301679 16.0001941,10.4128478 15.9905554,10.9650454 C15.9809167,11.517243 16.4207499,11.9727013 16.9729503,11.9823399 L16.9729503,11.9823399 Z" id="Shape" fill-rule="nonzero"></path>
                        <path d="M10,3.0102 L10,1.0102 C10,0.45791525 9.55228475,0.0102 9,0.0102 C8.44771525,0.0102 8,0.45791525 8,1.0102 L8,3.0102 C8,3.56248475 8.44771525,4.0102 9,4.0102 C9.55228475,4.0102 10,3.56248475 10,3.0102 L10,3.0102 Z" id="Shape" fill-rule="nonzero"></path>
                    </g>
                    <g id="Icon-/-Weather-symbol-/-Element-/-Dark_cloud_with_lightning" transform="translate(5.000000, 9.000000)" fill="#1B1B1B">
                        <path d="M25.3427717,5.26540032 C25.3092746,5.26149243 25.2337813,5.25343239 25.2337813,5.25343239 C25.1717867,5.24781479 25.1307903,5.2456166 25.089044,5.24439538 C24.930058,5.23511413 24.7918201,5.23120624 24.6515825,5.23120624 C24.1043806,5.23120624 23.5174322,5.29299983 22.9542317,5.41023669 L22.5475175,5.49474492 C20.4769495,5.9600287 19.0278269,7.22887342 18.4668763,9.06949207 C18.4138809,9.24363765 18.2503953,9.35623388 18.0736608,9.35623388 C18.0349142,9.35623388 17.9951677,9.35086053 17.9559212,9.33962533 C17.7386903,9.27636628 17.6152012,9.05288352 17.6796955,8.84063596 C18.2841423,6.85811187 19.8405055,5.40730577 21.9803173,4.80988628 C21.0548987,1.88824612 18.3663851,0.00195394761 15.1134211,0 L15.0214292,0.000976973805 C11.7277188,0.0334613528 9.04745449,2.00328479 8.64773963,4.68458939 L8.63499075,4.76860914 C9.31218121,4.97255242 10.0898628,5.26955246 10.6883102,5.71578524 C10.8685444,5.85011914 10.9032913,6.1016899 10.7658034,6.27803367 C10.6848105,6.38134865 10.5625713,6.43581494 10.4390821,6.43581494 C10.3520898,6.43581494 10.2645975,6.40894816 10.190354,6.35374914 C9.52791224,5.85988888 8.5537479,5.5665525 7.85380944,5.38605659 L7.69657326,5.35967829 C7.44584531,5.31766842 7.17161942,5.28884769 6.85789701,5.27126216 C6.65366496,5.25611907 6.46943116,5.24879177 6.29444655,5.24879177 C6.21170382,5.24879177 6.14970928,5.25050147 6.11171262,5.25172269 C6.08846466,5.25660756 6.00797174,5.2697967 6.00797174,5.2697967 C2.6215195,5.47447271 0,7.82531593 0,10.6238574 C0,13.5882402 2.88324649,15.9999 6.42718488,15.9999 L15.859533,15.9999 L21.8400072,12.3775254 L20.8265963,15.9999 L22.7787471,15.9999 C26.3261852,15.9999 29.945617,13.9519187 29.9996122,10.0374289 C30.0236101,8.65183577 28.9384555,5.67035596 25.430264,5.27981068 L25.3427717,5.26540032 Z" id="Fill-1"></path>
                    </g>
                </g>
                <g id="Icon-/-Weather-symbol-/-Element-/-Rain-drop" transform="translate(12.000000, 29.000000)" fill="#1C7499">
                    <g id="Rain-drop">
                        <path d="M0.0316912892,4.21038462 C0.227189717,5.23061538 1.24743151,6 2.4046722,6 C3.07441681,6 3.68316192,5.72584615 4.11890841,5.22830769 C4.67415395,4.59207692 5.21389961,3.27969231 4.63140429,0.641538462 L4.52640514,0.171 L4.04740899,0.336 C0.0176914018,1.71853846 -0.103307625,3.50607692 0.0316912892,4.21038462" id="Rain-Drop"></path>
                    </g>
                </g>
                <g id="Icon-/-Weather-symbol-/-Element-/-Lightning" transform="translate(19.000000, 23.000000)" fill="#FF9103">
                    <g id="Lightning">
                        <polygon points="1.20181901 3.35317603 4.38958293 5.02864483 0 10.815 9.0001 4.92455759 5.73130451 3.21730301 6.610788 0"></polygon>
                    </g>
                </g>
            </g>
        </g>
    </g>
</svg>