<?xml version="1.0" encoding="UTF-8" standalone="no"?>
<svg width="40px" height="40px" viewBox="0 0 40 40" version="1.1" xmlns="http://www.w3.org/2000/svg" xmlns:xlink="http://www.w3.org/1999/xlink">
    <!-- Generator: Sketch 45 (43475) - http://www.bohemiancoding.com/sketch -->
    <title>33</title>
    <desc>Created with Sketch.</desc>
    <defs>
        <path d="M3.18597568,4.9122 L4.4351,4.9122 L4.4351,0.2596 L3.18597568,0.2596 L3.18597568,1.99292157 L1.32632432,1.99292157 L1.32632432,0.2596 L0.0772,0.2596 L0.0772,4.9122 L1.32632432,4.9122 L1.32632432,3.06659849 L3.18597568,3.06659849 L3.18597568,4.9122 L3.18597568,4.9122 Z M5.2702,4.9122 L6.42108732,4.9122 C6.50529859,4.9122 6.54038662,4.89816501 6.56845704,4.80693756 L6.79302042,4.14027541 L8.65268592,4.14027541 L8.90531972,4.80693756 C8.94040775,4.89816501 8.97549577,4.9122 9.05970704,4.9122 L10.2527,4.9122 L8.40005211,0.364862443 C8.36496408,0.266617496 8.33689366,0.2596 8.25268239,0.2596 L7.0105662,0.2596 L5.2702,4.9122 L5.2702,4.9122 Z M7.68414815,1.4456 C7.74028642,1.70524939 7.87361481,2.08419714 8.13325432,2.77191714 L8.2736,3.1649 L7.1368,3.1649 L7.26311111,2.77191714 C7.4876642,2.12630245 7.62800988,1.69823184 7.67713086,1.4456 L7.68414815,1.4456 L7.68414815,1.4456 Z M11.0316173,3.89466305 C10.9263529,4.02097798 10.9053,4.07711795 10.9053,4.21045038 L10.9053,4.9122 L14.9264,4.9122 L14.9264,3.88062805 L12.540407,3.88062805 C12.7579534,3.65606817 13.1579581,3.20694842 13.4737513,2.82800362 L14.7720122,1.27713695 C14.8772766,1.15082202 14.8983295,1.09468205 14.8983295,0.961349623 L14.8983295,0.2596 L10.9263529,0.2596 L10.9263529,1.29117195 L13.2562049,1.29117195 C13.0597113,1.47362685 12.6386538,1.9367816 12.3088253,2.34379638 L11.0316173,3.89466305 L11.0316173,3.89466305 Z M15.993,0.2596 L15.993,4.9122 L19.6702,4.9122 L19.6702,3.88062805 L17.2421252,3.88062805 L17.2421252,3.06659849 L19.3965153,3.06659849 L19.3965153,2.05607903 L17.2421252,2.05607903 L17.2421252,1.29117195 L19.607042,1.29117195 L19.607042,0.2596 L15.993,0.2596 L15.993,0.2596 Z" id="path-1"></path>
    </defs>
    <g id="Weather-Icons" stroke="none" stroke-width="1" fill="none" fill-rule="evenodd">
        <g id="33">
            <g id="Icon-/-Weather-symbol-/-Weather-icon-/-33">
                <g id="Icon-/-Weather-icon-/-33">
                    <g id="Rectangle-8-+-Group-535" transform="translate(5.000000, 8.000000)">
                        <rect id="Rectangle-8" stroke="#575756" stroke-width="2" x="1" y="1" width="28" height="15"></rect>
                        <g id="Group-535" transform="translate(5.000000, 6.228100)">
                            <mask id="mask-2" fill="white">
                                <use xlink:href="#path-1"></use>
                            </mask>
                            <g id="Clip-534"></g>
                            <polygon id="Fill-533" fill="#575756" mask="url(#mask-2)" points="-1.6772 -1.4947 21.4246 -1.4947 21.4246 6.6667 -1.6772 6.6667"></polygon>
                        </g>
                    </g>
                    <rect id="Bounding-box" x="0" y="0" width="40" height="40"></rect>
                </g>
            </g>
        </g>
    </g>
</svg>