<?xml version="1.0" encoding="UTF-8" standalone="no"?>
<svg width="40px" height="40px" viewBox="0 0 40 40" version="1.1" xmlns="http://www.w3.org/2000/svg" xmlns:xlink="http://www.w3.org/1999/xlink">
    <!-- Generator: Sketch 45 (43475) - http://www.bohemiancoding.com/sketch -->
    <title>4</title>
    <desc>Created with Sketch.</desc>
    <defs>
        <linearGradient x1="50%" y1="0%" x2="50%" y2="100%" id="linearGradient-1">
            <stop stop-color="#FFFFFF" stop-opacity="0.5" offset="0%"></stop>
            <stop stop-color="#000000" stop-opacity="0.5" offset="100%"></stop>
        </linearGradient>
        <linearGradient x1="50%" y1="0%" x2="50%" y2="100%" id="linearGradient-2">
            <stop stop-color="#575756" offset="0%"></stop>
            <stop stop-color="#000000" stop-opacity="0.5" offset="100%"></stop>
        </linearGradient>
        <path d="M1.3925,3.6467 L1.3925,1.2667 L1.83778909,1.2667 C2.41892909,1.2667 2.82648182,1.32003333 3.09818364,1.53336667 C3.33214909,1.71336667 3.468,2.0067 3.468,2.46003333 C3.468,2.91336667 3.33214909,3.20003333 3.09818364,3.38003333 C2.82648182,3.59336667 2.41892909,3.6467 1.83778909,3.6467 L1.3925,3.6467 L1.3925,3.6467 Z M1.87551724,4.6667 C2.90193354,4.6667 3.70193448,4.47336667 4.23023699,4.0067 C4.63023746,3.65336667 4.8642,3.14003333 4.8642,2.46003333 C4.8642,1.78003333 4.63023746,1.26003333 4.23023699,0.9067 C3.70193448,0.440033333 2.90193354,0.2467 1.87551724,0.2467 L0.0491,0.2467 L0.0491,4.6667 L1.87551724,4.6667 L1.87551724,4.6667 Z M10.1397,0.2467 L8.81894635,0.2467 L8.81894635,2.84671932 C8.81894635,3.10672125 8.75856904,3.27338915 8.61517293,3.38672333 C8.4566825,3.51339094 8.16989028,3.58672481 7.83026791,3.58672481 C7.49064554,3.58672481 7.188759,3.51339094 7.03026856,3.38672333 C6.88687245,3.27338915 6.82649514,3.10672125 6.82649514,2.84671932 L6.82649514,0.2467 L5.4831,0.2467 L5.4831,2.76005201 C5.4831,3.40672348 5.66423193,3.88006033 6.05668444,4.21339614 C6.44158979,4.54006523 7.03781572,4.7334 7.81517358,4.7334 C8.59253144,4.7334 9.18875737,4.54006523 9.57366272,4.21339614 C9.96611524,3.88006033 10.1397,3.40672348 10.1397,2.76005201 L10.1397,0.2467 L10.1397,0.2467 Z M11.0226825,3.43997613 L10.7057,4.22663704 C11.2943818,4.51996823 12.1321213,4.7333 12.939672,4.7333 C14.1774133,4.7333 15.0227,4.18663734 15.0227,3.23331098 C15.0227,2.43998346 14.4868486,2.14665227 13.2113713,1.87332094 L12.7434448,1.77332167 C12.2755182,1.6733224 12.0868381,1.5999896 12.0868381,1.45332401 C12.0868381,1.25999209 12.3509902,1.226659 12.9170304,1.226659 C13.1962769,1.226659 13.5962787,1.25332548 13.9283556,1.27999195 L14.539679,1.33332489 L14.7585479,0.519997511 C14.2302437,0.299999122 13.5208066,0.18 12.9170304,0.18 C11.6943836,0.18 10.7887192,0.579997072 10.7887192,1.47999048 C10.7887192,2.27998463 11.4377787,2.61998214 12.5019343,2.84664714 L13.0000497,2.95331303 C13.5057122,3.05997892 13.7094867,3.1266451 13.7094867,3.32664363 C13.7094867,3.56664187 13.4377874,3.686641 12.9170304,3.686641 C12.5925007,3.686641 12.1094797,3.63330805 11.5509867,3.53330878 L11.0226825,3.43997613 L11.0226825,3.43997613 Z M16.8943576,4.6667 L18.2377424,4.6667 L18.2377424,1.2267 L19.9132,1.2267 L19.9132,0.2467 L15.2189,0.2467 L15.2189,1.2267 L16.8943576,1.2267 L16.8943576,4.6667 L16.8943576,4.6667 Z" id="path-3"></path>
    </defs>
    <g id="Weather-Icons" stroke="none" stroke-width="1" fill="none" fill-rule="evenodd">
        <g id="4">
            <g id="Icon-/-Weather-symbol-/-Weather-icon-/-4">
                <g id="Icon-/-Weather-icon-/-4">
                    <g id="Group-58-+-Rectangle-8" transform="translate(5.000000, 8.000000)">
                        <g id="Group-58" transform="translate(5.000000, 6.000000)">
                            <mask id="mask-4" fill="white">
                                <use xlink:href="#path-3"></use>
                            </mask>
                            <g id="Clip-57">
                                <use fill="#D8D8D8" xlink:href="#path-3"></use>
                                <use fill="url(#linearGradient-1)" xlink:href="#path-3"></use>
                                <use fill="url(#linearGradient-1)" xlink:href="#path-3"></use>
                                <use fill="url(#linearGradient-1)" xlink:href="#path-3"></use>
                                <use fill="url(#linearGradient-2)" xlink:href="#path-3"></use>
                            </g>
                        </g>
                        <rect id="Rectangle-8" stroke="#575756" stroke-width="2" x="1" y="1" width="28" height="15"></rect>
                    </g>
                    <rect id="Bounding-box" x="0" y="0" width="40" height="40"></rect>
                </g>
            </g>
        </g>
    </g>
</svg>