<?xml version="1.0" encoding="UTF-8" standalone="no"?>
<svg width="40px" height="40px" viewBox="0 0 40 40" version="1.1" xmlns="http://www.w3.org/2000/svg" xmlns:xlink="http://www.w3.org/1999/xlink">
    <!-- Generator: Sketch 45 (43475) - http://www.bohemiancoding.com/sketch -->
    <title>5</title>
    <desc>Created with Sketch.</desc>
    <defs></defs>
    <g id="Weather-Icons" stroke="none" stroke-width="1" fill="none" fill-rule="evenodd">
        <g id="5">
            <g id="Icon-/-Weather-symbol-/-Weather-icon-/-5">
                <g id="Icon-/-Weather-icon-/-5">
                    <path d="M16.648,29.696 C16.536,29.696 16.504,29.72 16.432,29.816 L14.712,32.008 L14.664,32.008 L12.912,29.816 C12.84,29.72 12.808,29.696 12.696,29.696 L11.808,29.696 L11.808,35 L12.872,35 L12.872,31.368 L12.888,31.368 L14.216,33.048 C14.272,33.12 14.312,33.136 14.408,33.136 L15.064,33.136 L16.44,31.368 L16.456,31.368 L16.456,35 L17.528,35 L17.528,29.696 L16.648,29.696 Z M18.64,35 L19.744,35 L19.744,29.696 L18.64,29.696 L18.64,35 Z M20.608,34.52 C21.16,34.824 22.032,35.08 22.736,35.08 C24.016,35.08 24.752,34.424 24.752,33.4 C24.752,32.592 24.32,32.168 23.04,31.8 L22.544,31.656 C21.984,31.496 21.696,31.36 21.696,31.064 C21.696,30.728 22.056,30.584 22.752,30.584 C23.048,30.584 23.496,30.624 23.904,30.672 L24.328,30.72 L24.496,29.976 C23.928,29.744 23.296,29.616 22.688,29.616 C21.56,29.616 20.664,30.112 20.664,31.072 C20.664,31.896 21.256,32.328 22.32,32.64 L22.864,32.8 C23.48,32.984 23.712,33.104 23.712,33.448 C23.712,33.88 23.336,34.112 22.8,34.112 C22.44,34.112 22.04,34.056 21.432,33.92 L20.888,33.8 L20.608,34.52 Z M27.824,30.624 L29.592,30.624 L29.592,29.696 L24.952,29.696 L24.952,30.624 L26.72,30.624 L26.72,35 L27.824,35 L27.824,30.624 Z" id="MIST" fill="#858585"></path>
                    <g id="Icon-/-Weather-symbol-/-Element-/-Cloud-light" transform="translate(5.000000, 9.000000)">
                        <path d="M22.3812583,4.93241086 C21.4112425,1.9467802 18.5934703,0 15.1005131,0 C11.4725189,0.0329962746 8.6356165,2.12346993 8.2057487,4.88025546 C7.91541913,4.83342203 7.62171365,4.80787653 7.32463223,4.79297499 C6.84862679,4.75784992 6.42438553,4.78552422 6.38387443,4.79403938 C2.8211481,4.9994678 0,7.42629058 0,10.3874401 C0,13.4816392 3.08334496,16 6.87113296,16 L22.3722559,16 C26.1139062,16 29.9388294,13.8914316 29.9995961,9.85949973 C30.0254782,8.36295902 28.8123957,5.21341139 24.9717182,4.80149015 C24,4.69999981 23.1892298,4.76742948 22.3812583,4.93241086 Z" id="Path" fill="#959595"></path>
                        <path d="M6.69999981,14.6000004 C4.99852744,14.6000004 1.79999995,13.3000002 1.5,11 C1.20000005,8.69999981 3.13390601,6.19999981 6,6.19999981 C6.07581651,6.19999981 9,6 10,8 C10.0357981,8.02983173 10.1639413,8.17502427 10.1999998,8.19999981 C10.7683061,8.5936313 11.2649159,8.28210114 11.5,8 C11.75,7.69999981 11.5215431,7.12462963 11.1091688,6.81982832 C10,6 10,6 9.8340729,5.5983788 C10.0132756,3.34640538 12.2739862,1.32964679 15.0309503,1.29999995 C17.8533924,1.29881408 20.2533222,2.94444301 21,5.5 C19.5457014,6.21389573 18.1153846,7.01193979 17.4846484,9.88886845 C17.3747208,10.390273 17.5140851,10.9016043 18,11.0308645 C18.0769652,11.053396 18.2853168,11.0640689 18.3611333,11.0640689 C18.7631906,11.0640689 19,10.4241833 19,10 C19,8 21.6548312,6.33915977 23,6 C24,5.89208553 29,5.72763899 28.499869,10.5885337 C28.1473103,14.015137 24.5,14.6000004 22.6558042,14.6000004 L6.69999981,14.6000004 Z" id="increase1" fill="#FFFFFF"></path>
                    </g>
                    <rect id="Bounding-box" x="0" y="0" width="40" height="40"></rect>
                </g>
            </g>
        </g>
    </g>
</svg>