<?xml version="1.0" encoding="UTF-8" standalone="no"?>
<svg width="40px" height="40px" viewBox="0 0 40 40" version="1.1" xmlns="http://www.w3.org/2000/svg" xmlns:xlink="http://www.w3.org/1999/xlink">
    <!-- Generator: Sketch 45 (43475) - http://www.bohemiancoding.com/sketch -->
    <title>7</title>
    <desc>Created with Sketch.</desc>
    <defs></defs>
    <g id="Weather-Icons" stroke="none" stroke-width="1" fill="none" fill-rule="evenodd">
        <g id="7">
            <g id="Icon-/-Weather-symbol-/-Weather-icon-/-7">
                <g id="Icon-/-Weather-icon-/-7">
                    <g id="Icon-/-Weather-symbol-/-Element-/-Cloud-light" transform="translate(5.000000, 9.000000)">
                        <path d="M22.3812583,4.93241086 C21.4112425,1.9467802 18.5934703,0 15.1005131,0 C11.4725189,0.0329962746 8.6356165,2.12346993 8.2057487,4.88025546 C7.91541913,4.83342203 7.62171365,4.80787653 7.32463223,4.79297499 C6.84862679,4.75784992 6.42438553,4.78552422 6.38387443,4.79403938 C2.8211481,4.9994678 0,7.42629058 0,10.3874401 C0,13.4816392 3.08334496,16 6.87113296,16 L22.3722559,16 C26.1139062,16 29.9388294,13.8914316 29.9995961,9.85949973 C30.0254782,8.36295902 28.8123957,5.21341139 24.9717182,4.80149015 C24,4.69999981 23.1892298,4.76742948 22.3812583,4.93241086 Z" id="Path" fill="#959595"></path>
                        <path d="M6.69999981,14.6000004 C4.99852744,14.6000004 1.79999995,13.3000002 1.5,11 C1.20000005,8.69999981 3.13390601,6.19999981 6,6.19999981 C6.07581651,6.19999981 9,6 10,8 C10.0357981,8.02983173 10.1639413,8.17502427 10.1999998,8.19999981 C10.7683061,8.5936313 11.2649159,8.28210114 11.5,8 C11.75,7.69999981 11.5215431,7.12462963 11.1091688,6.81982832 C10,6 10,6 9.8340729,5.5983788 C10.0132756,3.34640538 12.2739862,1.32964679 15.0309503,1.29999995 C17.8533924,1.29881408 20.2533222,2.94444301 21,5.5 C19.5457014,6.21389573 18.1153846,7.01193979 17.4846484,9.88886845 C17.3747208,10.390273 17.5140851,10.9016043 18,11.0308645 C18.0769652,11.053396 18.2853168,11.0640689 18.3611333,11.0640689 C18.7631906,11.0640689 19,10.4241833 19,10 C19,8 21.6548312,6.33915977 23,6 C24,5.89208553 29,5.72763899 28.499869,10.5885337 C28.1473103,14.015137 24.5,14.6000004 22.6558042,14.6000004 L6.69999981,14.6000004 Z" id="increase1" fill="#FFFFFF"></path>
                    </g>
                    <rect id="Bounding-box" x="0" y="0" width="40" height="40"></rect>
                </g>
            </g>
        </g>
    </g>
</svg>