<?xml version="1.0" encoding="UTF-8" standalone="no"?>
<svg width="40px" height="40px" viewBox="0 0 40 40" version="1.1" xmlns="http://www.w3.org/2000/svg" xmlns:xlink="http://www.w3.org/1999/xlink">
    <!-- Generator: Sketch 45 (43475) - http://www.bohemiancoding.com/sketch -->
    <title>8</title>
    <desc>Created with Sketch.</desc>
    <defs></defs>
    <g id="Weather-Icons" stroke="none" stroke-width="1" fill="none" fill-rule="evenodd">
        <g id="8">
            <g id="Icon-/-Weather-symbol-/-Weather-icon-/-8">
                <g id="Icon-/-Weather-icon-/-8">
                    <g id="Icon-/-Weather-symbol-/-Element-/-Cloud-mid" transform="translate(5.000000, 9.000000)" fill="#959595">
                        <path d="M6.42733316,16 C2.8833957,16 -0.0001,13.6067054 -0.0001,10.6646546 C-0.0001,7.88742461 2.62141881,5.55472591 5.96812366,5.35379 C6.80000019,5.30000019 7.85395734,5.46674071 7.85395734,5.46674071 C8.55389561,5.6458621 9.52780972,5.93696468 10.1902513,6.42706409 C10.2644948,6.48208514 10.351987,6.50850494 10.4389794,6.50850494 C10.5627185,6.50850494 10.6849577,6.45469581 10.7657006,6.35192521 C10.9031884,6.17716671 10.8686915,5.92726934 10.6882074,5.79395842 C10.0897602,5.35136616 9.31232873,5.05638546 8.63513845,4.85423763 L8.64763735,4.77061532 C9.04760207,2.10972938 11.7276157,0.155148922 15.0213252,0.122911917 L15.1133171,0.1217 C18.3662802,0.123639068 21.0547931,1.99556676 21.9802115,4.89495805 C19.8404002,5.48807045 18.2840375,6.92782838 17.6798408,8.89525516 C17.6153465,9.10564403 17.7388356,9.32742492 17.9560664,9.39020225 C17.995063,9.40159427 18.0348095,9.40692671 18.0735561,9.40692671 C18.2502905,9.40692671 18.4137761,9.29518792 18.4667714,9.12236849 C19.0277219,7.29552413 20.4770941,6.03658429 22.5474115,5.57484374 L22.9541256,5.49073667 C24.2000008,5.19999981 25.4301573,5.36154627 25.4301573,5.36154627 C28.9383479,5.74911747 30.0237522,8.70789272 29.9995043,10.0829343 C29.945759,13.9676144 26.3263282,16 22.7786411,16 L6.42733316,16 Z" id="Fill-1"></path>
                    </g>
                    <rect id="Bounding-box" x="0" y="0" width="40" height="40"></rect>
                </g>
            </g>
        </g>
    </g>
</svg>